<?xml version="1.0" standalone="no"?>
<!DOCTYPE svg PUBLIC "-//W3C//DTD SVG 20010904//EN"
 "http://www.w3.org/TR/2001/REC-SVG-20010904/DTD/svg10.dtd">
<svg version="1.0" xmlns="http://www.w3.org/2000/svg"
 width="512.000000pt" height="512.000000pt" viewBox="0 0 512.000000 512.000000"
 preserveAspectRatio="xMidYMid meet">

<g transform="translate(0.000000,512.000000) scale(0.100000,-0.100000)"
fill="#000000" stroke="none">
<path d="M443 5102 c-63 -22 -115 -61 -154 -115 -63 -87 -59 82 -57 -2447 l3
-2305 21 -46 c31 -67 87 -124 152 -156 l57 -28 1435 0 1435 0 52 27 c68 36
120 90 152 158 l26 55 3 384 3 383 42 -6 c55 -9 70 -22 56 -49 -19 -34 -4 -97
46 -201 50 -103 77 -130 142 -142 32 -6 58 4 323 129 52 25 221 104 375 177
154 72 288 139 298 148 63 57 60 123 -12 268 -40 80 -51 113 -51 151 -1 138
-86 385 -258 746 -75 156 -114 205 -188 233 -54 21 -131 14 -181 -16 -19 -11
-36 -20 -37 -20 -2 0 -15 18 -29 39 -15 22 -48 53 -74 68 -40 24 -59 28 -118
28 -77 -1 -118 -17 -171 -66 -30 -29 -31 -29 -67 -14 -20 8 -50 15 -66 15
l-31 0 -2 1188 -3 1187 -26 55 c-32 68 -84 122 -152 158 l-52 27 -1420 2
c-1343 2 -1423 2 -1472 -15z m2640 -191 c26 -46 27 -56 27 -185 l0 -136 -1361
0 -1361 0 4 138 c3 123 5 140 25 168 49 68 -47 64 1364 64 l1276 0 26 -49z
m325 -1468 c-2 -708 -6 -997 -14 -1000 -6 -2 -53 87 -105 199 -103 222 -130
264 -183 297 l-36 23 0 97 c0 86 -3 102 -23 132 -13 19 -38 39 -57 46 -25 8
-159 12 -464 12 -413 1 -431 0 -472 -19 -74 -36 -74 -37 -74 -460 0 -406 2
-418 58 -457 25 -17 61 -18 445 -21 l419 -3 30 -67 c17 -37 86 -184 154 -327
126 -263 169 -373 158 -407 -3 -11 -55 -43 -134 -83 -137 -69 -178 -104 -199
-174 -36 -121 30 -264 150 -326 66 -34 115 -31 234 17 l110 45 3 -165 c1 -91
0 -167 -3 -170 -2 -3 -304 -7 -670 -10 -734 -5 -687 -1 -701 -68 -4 -21 0 -37
16 -57 l21 -27 520 0 519 0 0 -102 c0 -88 -4 -111 -25 -156 l-24 -52 -1277 0
c-1412 0 -1318 -4 -1367 64 -19 26 -22 47 -25 139 l-4 107 706 0 c693 0 706 0
726 20 28 28 26 81 -3 108 l-23 22 -705 2 -704 3 -3 1908 -2 1907 1515 0 1515
0 -2 -997z m-648 -462 c0 -87 -4 -118 -20 -152 -25 -57 -25 -134 0 -201 12
-33 20 -77 20 -115 l0 -63 -310 0 -310 0 0 320 0 320 310 0 310 0 0 -109z
m268 -179 c15 -11 85 -150 199 -392 96 -206 182 -383 191 -392 20 -23 74 -23
103 0 32 26 28 63 -14 156 -21 43 -37 88 -37 98 0 11 13 33 29 49 34 33 91 40
128 14 12 -9 42 -57 66 -109 58 -122 104 -154 154 -106 37 34 37 55 -2 140
-41 91 -40 111 8 141 69 42 112 13 172 -115 23 -50 52 -112 64 -137 32 -68 84
-84 134 -41 23 20 22 73 -4 123 -18 37 -19 43 -5 64 21 31 62 40 93 19 16 -10
49 -65 92 -157 140 -295 220 -511 236 -640 l7 -57 -144 -69 c-152 -72 -171
-90 -161 -144 7 -34 38 -57 76 -57 15 0 55 14 89 31 33 17 64 27 68 22 4 -4
18 -33 32 -63 l25 -56 -367 -172 c-202 -95 -371 -172 -377 -172 -13 0 -63 113
-54 122 3 4 73 38 155 77 82 38 157 78 167 88 45 46 13 123 -50 123 -16 0 -88
-27 -159 -60 -70 -33 -133 -60 -139 -60 -5 0 -18 9 -29 21 -42 46 -93 63 -189
63 -100 0 -189 -21 -315 -74 -127 -54 -159 -51 -199 20 -44 79 -24 106 133
180 128 61 156 83 181 142 35 85 8 197 -106 428 -137 279 -400 845 -405 870
-6 36 16 72 56 92 37 19 61 16 98 -10z"/>
<path d="M2565 4865 c-51 -50 -15 -135 57 -135 61 1 97 52 77 110 -20 55 -91
69 -134 25z"/>
<path d="M2812 4867 c-32 -34 -30 -89 4 -116 56 -44 134 -11 134 58 0 73 -89
110 -138 58z"/>
<path d="M805 4015 l-25 -24 0 -233 c0 -263 3 -278 64 -278 19 0 38 6 45 13 6
8 12 74 13 167 l3 153 119 -159 c66 -87 124 -162 130 -166 23 -16 65 -8 80 14
13 19 16 61 16 254 0 219 -1 233 -21 258 -24 30 -48 33 -78 9 -19 -17 -21 -29
-23 -171 l-3 -153 -123 165 c-143 191 -151 197 -197 151z"/>
<path d="M1933 4030 c-12 -5 -25 -20 -28 -33 -8 -29 89 -461 110 -494 21 -32
86 -35 117 -5 10 10 38 85 62 167 l44 150 21 -75 c63 -216 72 -240 91 -250 32
-17 85 -12 105 10 20 22 125 463 117 493 -2 10 -16 25 -29 34 -19 13 -29 14
-49 5 -32 -15 -38 -32 -70 -192 -15 -74 -30 -138 -34 -143 -3 -4 -26 64 -51
150 -44 157 -62 193 -98 193 -41 0 -59 -33 -106 -195 -26 -88 -48 -161 -49
-162 -2 -2 -18 69 -36 157 -18 88 -38 166 -44 174 -15 19 -47 26 -73 16z"/>
<path d="M2835 4022 c-22 -11 -53 -34 -70 -51 -25 -27 -30 -41 -33 -96 -4 -62
-3 -66 29 -98 24 -24 59 -42 117 -61 93 -31 113 -52 88 -91 -23 -35 -50 -39
-126 -19 -75 19 -95 16 -112 -20 -15 -33 10 -72 60 -94 56 -24 167 -21 219 6
67 35 88 73 88 160 0 72 -1 74 -36 106 -23 21 -65 43 -116 60 -45 15 -84 33
-86 40 -3 8 2 24 10 36 17 23 14 23 135 4 31 -5 39 -3 54 20 35 55 -18 106
-119 113 -47 3 -72 -1 -102 -15z"/>
<path d="M1457 4012 c-15 -16 -17 -49 -17 -255 0 -295 -10 -277 153 -277 123
0 157 12 157 54 0 46 -21 59 -109 64 l-81 5 0 48 0 49 68 0 c76 0 102 16 102
61 0 40 -18 49 -97 49 l-73 0 0 55 0 55 78 0 c87 0 102 8 102 55 0 50 -12 55
-145 55 -105 0 -124 -2 -138 -18z"/>
<path d="M732 3137 c-29 -31 -29 -77 1 -105 23 -22 24 -22 499 -22 262 0 484
3 493 6 24 10 46 60 39 89 -14 56 -7 55 -529 55 l-482 0 -21 -23z"/>
<path d="M732 2747 c-31 -33 -29 -80 4 -106 26 -21 36 -21 500 -21 260 0 480
3 489 6 24 10 46 60 39 89 -14 56 -7 55 -529 55 l-482 0 -21 -23z"/>
<path d="M730 2358 c-27 -30 -26 -73 5 -103 l24 -25 470 0 c323 0 478 3 494
11 47 21 56 80 19 122 -14 16 -51 17 -503 17 l-488 0 -21 -22z"/>
<path d="M754 1986 c-51 -22 -60 -81 -19 -121 l24 -25 995 0 995 0 27 23 c35
30 37 79 5 110 l-22 22 -987 2 c-814 2 -992 0 -1018 -11z"/>
<path d="M748 1594 c-50 -27 -48 -106 2 -131 20 -10 240 -13 1012 -13 l987 0
27 23 c35 30 37 79 5 110 l-22 22 -992 2 c-864 2 -996 0 -1019 -13z"/>
<path d="M750 1207 c-32 -16 -47 -58 -34 -94 5 -15 21 -33 34 -40 20 -10 233
-12 1017 -10 l992 2 22 22 c32 31 30 80 -5 110 l-27 23 -987 0 c-772 0 -992
-3 -1012 -13z"/>
</g>
</svg>
